<svg xmlns="http://www.w3.org/2000/svg" width="1024" height="1024" viewBox="0 0 1024 1024"><rect x="180" y="180" width="76" height="76" rx="20" fill="#FFFFFF" fill-opacity="0.16"/><rect x="278" y="180" width="76" height="76" rx="20" fill="#FFFFFF" fill-opacity="0.16"/><rect x="376" y="180" width="76" height="76" rx="20" fill="#FFFFFF" fill-opacity="0.16"/><rect x="572" y="180" width="76" height="76" rx="20" fill="#FFFFFF" fill-opacity="0.16"/><rect x="670" y="180" width="76" height="76" rx="20" fill="#FFFFFF" fill-opacity="0.16"/><rect x="768" y="180" width="76" height="76" rx="20" fill="#FFFFFF" fill-opacity="0.16"/><rect x="180" y="278" width="76" height="76" rx="20" fill="#FFFFFF" fill-opacity="0.16"/><rect x="278" y="278" width="76" height="76" rx="20" fill="#FFFFFF" fill-opacity="0.16"/><rect x="670" y="278" width="76" height="76" rx="20" fill="#FFFFFF" fill-opacity="0.16"/><rect x="768" y="278" width="76" height="76" rx="20" fill="#FFFFFF" fill-opacity="0.16"/><rect x="180" y="376" width="76" height="76" rx="20" fill="#FFFFFF" fill-opacity="0.16"/><rect x="376" y="376" width="76" height="76" rx="20" fill="#FFFFFF" fill-opacity="0.16"/><rect x="572" y="376" width="76" height="76" rx="20" fill="#FFFFFF" fill-opacity="0.16"/><rect x="768" y="376" width="76" height="76" rx="20" fill="#FFFFFF" fill-opacity="0.16"/><rect x="376" y="474" width="76" height="76" rx="20" fill="#FFFFFF" fill-opacity="0.16"/><rect x="572" y="474" width="76" height="76" rx="20" fill="#FFFFFF" fill-opacity="0.16"/><rect x="278" y="670" width="76" height="76" rx="20" fill="#FFFFFF" fill-opacity="0.16"/><rect x="474" y="670" width="76" height="76" rx="20" fill="#FFFFFF" fill-opacity="0.16"/><rect x="670" y="670" width="76" height="76" rx="20" fill="#FFFFFF" fill-opacity="0.16"/><rect x="180" y="768" width="76" height="76" rx="20" fill="#FFFFFF" fill-opacity="0.16"/><rect x="376" y="768" width="76" height="76" rx="20" fill="#FFFFFF" fill-opacity="0.16"/><rect x="474" y="768" width="76" height="76" rx="20" fill="#FFFFFF" fill-opacity="0.16"/><rect x="572" y="768" width="76" height="76" rx="20" fill="#FFFFFF" fill-opacity="0.16"/><rect x="768" y="768" width="76" height="76" rx="20" fill="#FFFFFF" fill-opacity="0.16"/></svg>